HIERARCHY
ROOT hip
{
	OFFSET 0.000000 0.000000 0.000000 
	CHANNELS 6 Xposition Yposition Zposition Xrotation Zrotation Yrotation
	JOINT abdomen
	{
		OFFSET 0.000000 3.402643 0.000000 
		CHANNELS 3 Xrotation Zrotation Yrotation
		JOINT chest
		{
			OFFSET 0.000000 8.438565 -0.680529 
			CHANNELS 3 Xrotation Zrotation Yrotation
			JOINT neck
			{
				OFFSET 0.000000 10.207942 -0.272212 
				CHANNELS 3 Xrotation Zrotation Yrotation
				JOINT head
				{
					OFFSET 0.000000 3.130431 0.000000 
					CHANNELS 3 Xrotation Zrotation Yrotation
					End Site
					{
						OFFSET 0.000000 3.130435 0.000000 
					}
				}
			}
			JOINT lCollar
			{
				OFFSET 3.470700 6.669187 -0.816635 
				CHANNELS 3 Yrotation Zrotation Xrotation
				JOINT lShldr
				{
					OFFSET 3.198488 0.000000 0.000000 
					CHANNELS 3 Zrotation Yrotation Xrotation
					JOINT lForeArm
					{
						OFFSET 10.139888 0.000000 0.000000 
						CHANNELS 3 Yrotation Zrotation Xrotation
						JOINT lHand
						{
							OFFSET 8.370511 0.000000 0.000000 
							CHANNELS 3 Zrotation Yrotation Xrotation
							End Site
							{
								OFFSET 4.083176 0.000000 0.000000 
							}
						}
					}
				}
			}
			JOINT rCollar
			{
				OFFSET -3.470700 6.669187 -0.816635 
				CHANNELS 3 Yrotation Zrotation Xrotation
				JOINT rShldr
				{
					OFFSET -3.198488 0.000000 0.000000 
					CHANNELS 3 Zrotation Yrotation Xrotation
					JOINT rForeArm
					{
						OFFSET -10.139888 0.000000 0.000000 
						CHANNELS 3 Yrotation Zrotation Xrotation
						JOINT rHand
						{
							OFFSET -8.370511 0.000000 0.000000 
							CHANNELS 3 Zrotation Yrotation Xrotation
							End Site
							{
								OFFSET -4.083176 0.000000 0.000000 
							}
						}
					}
				}
			}
		}
	}
	JOINT lThigh
	{
		OFFSET 5.308129 -1.633274 1.361059 
		CHANNELS 3 Xrotation Zrotation Yrotation
		JOINT lShin
		{
			OFFSET -2.041588 -20.007561 0.000000 
			CHANNELS 3 Xrotation Zrotation Yrotation
			JOINT lFoot
			{
				OFFSET 0.000000 -19.190928 -1.224953 
				CHANNELS 3 Xrotation Yrotation Zrotation
				End Site
				{
					OFFSET 0.000000 -2.449906 4.627600 
				}
			}
		}
	}
	JOINT rThigh
	{
		OFFSET -5.308129 -1.633274 1.361059 
		CHANNELS 3 Xrotation Zrotation Yrotation
		JOINT rShin
		{
			OFFSET 2.041588 -20.007561 0.000000 
			CHANNELS 3 Xrotation Zrotation Yrotation
			JOINT rFoot
			{
				OFFSET 0.000000 -19.190928 -1.224953 
				CHANNELS 3 Xrotation Yrotation Zrotation
				End Site
				{
					OFFSET 0.000000 -2.449906 4.627600 
				}
			}
		}
	}
}
MOTION
Frames: 16
Frame Time: 0.066667
0.000000 29.949478 0.004834 7.237432 0.997847 -3.750089 13.966311 3.233881 -0.615530 -14.198357 -3.948469 2.582754 -0.351563 0.048827 2.450872 -0.019531 0.000000 0.000000 2.000000 -2.000000 0.000000 38.490437 20.051252 -53.350174 -133.139023 15.429396 -55.531239 33.412495 18.185350 -7.579721 -2.000000 2.000000 0.000000 -45.070961 -11.048958 -73.755875 134.967621 -22.284298 0.863380 15.607527 -0.224664 0.630945 -49.407681 5.819484 -1.973716 110.493820 -3.890420 -12.525683 -68.010506 2.386114 7.136304 -52.092548 -2.128764 -3.226748 109.525764 -5.038805 1.992873 -64.647217 1.215580 -0.332828 
0.000000 28.903242 0.004812 8.151203 2.310431 -6.133882 13.824130 2.883116 -2.616481 -14.310637 -4.292001 4.467475 -0.751954 0.078118 4.784132 -0.019531 0.000000 0.000000 2.000000 -2.000000 0.000000 38.500446 20.166174 -53.310028 -133.436188 15.585949 -55.766579 33.607811 18.185350 -7.579720 -2.000000 2.000000 0.000000 -45.090706 -11.051683 -73.757919 134.814331 -22.282967 0.864874 15.607822 -0.234169 0.628719 -50.973934 5.116653 -1.886322 113.741859 -4.155080 -12.951117 -71.128304 4.164823 7.265277 -54.914841 -2.383204 -3.101051 113.334877 -6.117748 1.137679 -66.508957 3.363657 -0.259488 
0.000000 28.389698 0.004788 8.740199 3.812761 -7.353731 13.696729 2.346702 -4.286993 -14.383110 -4.683749 5.070683 -1.162111 0.097636 6.931613 -0.019531 0.000000 0.000000 2.000000 -2.000000 0.000000 38.516262 20.222969 -53.282738 -133.822952 15.785390 -55.890026 33.676170 18.185350 -7.579720 -2.000000 2.000000 0.000000 -45.099140 -11.048675 -73.767731 134.611572 -22.290445 0.871692 15.608410 -0.253176 0.624266 -51.798458 4.061918 -1.584731 115.213776 -4.369497 -13.147388 -72.583244 5.692568 7.535098 -56.527279 -2.509116 -2.895062 115.417686 -7.020365 0.519459 -67.632454 3.945701 -0.498896 
0.000000 28.311646 0.004766 9.034735 5.410952 -7.616755 13.588366 1.676044 -5.665021 -14.426708 -5.045756 4.696362 -1.513674 0.097622 8.815780 -0.019531 0.000000 0.000000 2.000000 -2.000000 0.000000 38.518906 20.234015 -53.290295 -134.279099 16.002371 -55.930138 33.637112 18.185350 -7.579721 -2.000000 2.000000 0.000000 -45.118889 -11.051397 -73.769775 134.398300 -22.298391 0.871048 15.608704 -0.262681 0.622039 -52.226246 2.724393 -0.806559 115.046494 -4.437895 -13.311528 -72.679886 6.519206 7.741334 -57.304836 -3.192838 -2.176182 115.724808 -7.694825 0.171716 -67.798378 4.114078 -0.559184 
0.000000 28.571707 0.004742 9.062107 6.992586 -7.110227 13.500498 0.922142 -6.789040 -14.432301 -5.329065 3.663229 -1.787112 0.087848 10.387885 -0.019531 0.000000 0.000000 2.000000 -2.000000 0.000000 38.536926 20.207176 -53.298840 -134.798355 16.239788 -55.884533 33.519920 18.185350 -7.579722 -2.000000 2.000000 0.000000 -45.127327 -11.048384 -73.779579 134.216644 -22.299009 0.874861 15.599236 -0.272184 0.619812 -52.252571 1.415818 0.149971 113.841988 -4.740645 -13.542012 -71.537895 6.378343 7.804512 -57.397610 -4.003652 -1.249667 115.356934 -8.319963 -0.657043 -67.574615 3.654187 0.109213 
0.000000 29.072592 0.004717 8.846896 8.454391 -6.042507 13.432270 0.154569 -7.693341 -14.410505 -5.475241 2.265936 -1.904299 0.078082 11.559903 -0.019531 0.000000 0.000000 2.000000 -2.000000 0.000000 38.532120 20.155605 -53.330124 -135.371292 16.482197 -55.786900 33.363670 18.185350 -7.579721 -2.000000 2.000000 0.000000 -45.137085 -11.048385 -73.779579 134.099503 -22.303391 0.870794 15.599529 -0.281688 0.617586 -51.698288 -0.274025 1.269001 111.691750 -4.759953 -13.539589 -70.045074 6.262407 7.967723 -56.808208 -4.921501 0.069879 114.088394 -8.720455 -1.068156 -66.734406 2.406702 0.600603 
0.000000 29.717056 0.004694 8.411921 9.691557 -4.598307 13.380760 -0.585991 -8.419287 -14.352089 -5.445077 0.795331 -1.835938 0.058564 12.273515 -0.019531 0.000000 0.000000 2.000000 -2.000000 0.000000 38.530888 20.088076 -53.362076 -135.978943 16.710606 -55.653381 33.197655 18.185350 -7.579721 -2.000000 2.000000 0.000000 -45.127327 -11.048384 -73.779579 134.081467 -22.297363 0.870264 15.599236 -0.272184 0.619812 -50.594997 -1.660619 2.217959 109.003342 -4.896844 -13.418741 -67.693108 5.483906 8.148584 -55.341099 -5.917410 1.190981 112.131004 -9.001857 -1.511795 -66.124039 0.902776 1.526200 
0.000000 30.407677 0.004668 7.770044 10.597414 -2.975950 13.342554 -1.232939 -8.991854 -14.277751 -5.170503 -0.413594 -1.533203 0.039049 12.459892 -0.019531 0.000000 0.000000 2.000000 -2.000000 0.000000 38.518723 20.015406 -53.390156 -136.617905 16.924803 -55.504810 33.070705 18.185350 -7.579721 -2.000000 2.000000 0.000000 -45.127110 -11.045662 -73.777534 134.206085 -22.299158 0.871155 15.608704 -0.262681 0.622039 -49.034798 -2.529918 3.030264 106.033028 -5.061683 -13.228614 -65.369987 3.795314 7.750989 -53.652252 -6.844896 2.095481 110.150223 -9.382493 -2.147763 -65.386086 -0.815530 2.695550 
0.000000 31.047207 0.004643 6.956048 11.062591 -1.382210 13.312301 -1.746185 -9.452137 -14.168767 -4.602389 -1.079855 -0.937500 0.009764 12.060388 -0.019531 0.000000 0.000000 2.000000 -2.000000 0.000000 38.505287 19.937309 -53.417931 -137.280670 17.110523 -55.355053 33.002346 18.185350 -7.579722 -2.000000 2.000000 0.000000 -45.099140 -11.048675 -73.767731 134.515366 -22.287073 0.868443 15.608114 -0.243672 0.626492 -47.141754 -3.144965 3.534852 103.195717 -5.168732 -13.054554 -63.008774 2.245333 7.903718 -51.381119 -7.606826 2.340729 107.491615 -9.452105 -2.375187 -64.015427 -2.161627 3.328118 
0.000000 31.538387 0.004617 5.999199 10.995625 -0.002776 13.283957 -2.066851 -9.836342 -14.036199 -3.672515 -0.885029 -0.009766 0.000000 10.996094 -0.019531 0.000000 0.000000 2.000000 -2.000000 0.000000 38.480812 19.874691 -53.426552 -137.946945 17.250326 -55.220451 33.031643 18.185350 -7.579721 -2.000000 2.000000 0.000000 -45.072292 -11.051961 -73.746056 135.035248 -22.281956 0.862323 15.607235 -0.215160 0.633172 -45.288128 -3.476595 3.879671 100.908936 -5.422399 -12.618204 -61.394753 0.588661 7.796689 -49.281212 -7.870492 2.517914 105.351654 -9.511464 -2.288624 -62.772743 -3.563152 3.675454 
0.000000 31.808451 0.004591 4.903652 10.314489 0.998786 13.242684 -2.148240 -10.172308 -13.899754 -2.381188 0.369345 1.289063 -0.019526 9.237838 -0.019531 0.000000 0.000000 2.000000 -2.000000 0.000000 38.446575 19.833008 -53.426338 -138.599792 17.342138 -55.118069 33.178123 18.185350 -7.579720 -2.000000 2.000000 0.000000 -45.025688 -11.052498 -73.722336 135.779541 -22.265467 0.853450 15.605773 -0.167639 0.644307 -43.807522 -2.744326 3.528104 99.998940 -5.363780 -12.305076 -60.224297 -0.698857 7.370817 -47.110077 -7.870120 1.885376 103.766380 -8.974517 -2.129186 -61.743908 -4.031055 3.671957 
0.000000 31.883287 0.004564 3.718565 9.082720 1.633078 13.208780 -2.001357 -10.455563 -13.748801 -0.777104 2.549763 2.871094 -0.029260 6.912590 -0.019531 0.000000 0.000000 2.000000 -2.000000 0.000000 38.410896 19.806406 -53.407101 -139.211441 17.398287 -55.044441 33.402737 18.185350 -7.579721 -2.000000 2.000000 0.000000 -44.970867 -11.058722 -73.688957 136.660065 -22.243052 0.834983 15.604323 -0.120116 0.655463 -42.537956 -1.650864 3.229604 99.609055 -5.187800 -12.164409 -59.750332 -1.965086 7.188138 -45.864708 -7.987422 1.682456 103.277885 -8.329697 -1.720867 -61.496933 -4.410406 4.472256 
0.000000 31.813377 0.004537 2.481704 7.414992 1.962200 13.177226 -1.644757 -10.650266 -13.610748 1.041594 5.395520 4.658204 -0.029200 4.177304 -0.019531 0.000000 0.000000 2.000000 -2.000000 0.000000 38.365425 19.800676 -53.378929 -139.743073 17.415064 -55.000969 33.676170 18.185350 -7.579720 -2.000000 2.000000 0.000000 -44.924053 -11.056462 -73.663162 137.570480 -22.232901 0.824155 15.602595 -0.063092 0.668818 -41.545803 0.009032 2.596905 100.321686 -4.963443 -11.711620 -60.055321 -3.035281 6.723899 -44.366428 -7.156886 0.250945 103.295341 -7.968200 -1.261104 -61.621872 -4.396653 3.769435 
0.000000 31.649179 0.004510 1.216335 5.399181 2.028941 13.150303 -1.118560 -10.755804 -13.502963 2.967170 8.690019 6.552735 -0.029105 1.197824 -0.019531 0.000000 0.000000 2.000000 -2.000000 0.000000 38.340633 19.799814 -53.351604 -140.160278 17.403748 -54.985878 33.949612 18.185350 -7.579722 -2.000000 2.000000 0.000000 -44.877445 -11.056908 -73.639404 138.388123 -22.209484 0.805252 15.601161 -0.017796 0.689458 -40.712891 2.020479 1.716609 101.366173 -4.846802 -11.517635 -60.342247 -3.805238 6.590288 -43.030453 -6.142210 -1.200069 103.523689 -7.256083 -0.489756 -61.879692 -3.971552 3.268587 
0.000000 31.441195 0.004482 -0.048902 3.154296 1.891845 13.132384 -0.419785 -10.741917 -13.433425 4.901846 12.175025 8.457032 -0.028978 -1.879314 -0.019531 0.000000 0.000000 2.000000 -2.000000 0.000000 38.308842 19.810291 -53.334782 -140.406601 17.372990 -54.985416 34.174221 18.185350 -7.579722 -2.000000 2.000000 0.000000 -44.840816 -11.060074 -73.617691 139.002777 -22.198467 0.800416 15.600312 0.010717 0.696137 -40.032070 4.061528 0.670021 102.934868 -4.523836 -11.167877 -61.393402 -4.368292 6.145690 -41.487740 -4.911426 -2.914896 103.589180 -6.396292 0.313568 -62.268799 -3.335469 2.437721 
0.000000 31.239891 0.004454 -1.259883 0.781061 1.603918 13.128171 0.416442 -10.586669 -13.420415 6.747759 15.608574 10.292971 -0.028825 -4.878287 -0.019531 0.000000 0.000000 2.000000 -2.000000 0.000000 38.297745 19.825665 -53.318810 -140.464523 17.340492 -55.013649 34.301174 18.185350 -7.579720 -2.000000 2.000000 0.000000 -44.832165 -11.060277 -73.605804 139.306412 -22.190548 0.799232 15.599748 0.029727 0.700590 -39.277157 6.267869 -0.412147 104.530334 -4.545461 -10.940760 -62.376709 -4.955424 6.164067 -40.287895 -3.690927 -4.565082 103.825775 -5.536992 1.324565 -62.587734 -2.356853 1.387849 
